HIERARCHY
ROOT joint_Root
{
	OFFSET 0.0 0.0 0.0
	CHANNELS 6 Xposition Yposition Zposition Zrotation Xrotation Yrotation 
	JOINT Hips
	{
		OFFSET -17.1583 93.1646 452.98
		CHANNELS 6 Xposition Yposition Zposition Zrotation Xrotation Yrotation 
		JOINT Spine
		{
			OFFSET 15.7357 0.0 0.0
			CHANNELS 6 Xposition Yposition Zposition Zrotation Xrotation Yrotation 
			JOINT Chest
			{
				OFFSET 8.98455 -0.406207 0.0
				CHANNELS 6 Xposition Yposition Zposition Zrotation Xrotation Yrotation 
				JOINT Neck
				{
					OFFSET 16.3773 0.0 0.0
					CHANNELS 6 Xposition Yposition Zposition Zrotation Xrotation Yrotation 
					JOINT Head
					{
						OFFSET 6.45672 0.0 0.0
						CHANNELS 6 Xposition Yposition Zposition Zrotation Xrotation Yrotation 
						End Site
						{
							OFFSET 0.0 0.0 0.0
						}
					}
				}
				JOINT Shoulder_L
				{
					OFFSET 12.9942 -0.242716 4.98039
					CHANNELS 6 Xposition Yposition Zposition Zrotation Xrotation Yrotation 
					JOINT UpperArm_L
					{
						OFFSET 5.34809 0.0 0.0
						CHANNELS 6 Xposition Yposition Zposition Zrotation Xrotation Yrotation 
						JOINT LowerArm_L
						{
							OFFSET 24.3286 1.87007e-05 0.0
							CHANNELS 6 Xposition Yposition Zposition Zrotation Xrotation Yrotation 
							JOINT Hand_L
							{
								OFFSET 22.2916 0.0 0.0
								CHANNELS 6 Xposition Yposition Zposition Zrotation Xrotation Yrotation 
								End Site
								{
									OFFSET 0.0 0.0 0.0
								}
							}
						}
					}
				}
				JOINT Shoulder_R
				{
					OFFSET 12.9945 -0.242716 -4.98039
					CHANNELS 6 Xposition Yposition Zposition Zrotation Xrotation Yrotation 
					JOINT UpperArm_R
					{
						OFFSET -5.34813 0.0 0.0
						CHANNELS 6 Xposition Yposition Zposition Zrotation Xrotation Yrotation 
						JOINT LowerArm_R
						{
							OFFSET -24.3289 0.000322201 0.0
							CHANNELS 6 Xposition Yposition Zposition Zrotation Xrotation Yrotation 
							JOINT Hand_R
							{
								OFFSET -22.2915 -0.000108084 0.0
								CHANNELS 6 Xposition Yposition Zposition Zrotation Xrotation Yrotation 
								End Site
								{
									OFFSET 0.0 0.0 0.0
								}
							}
						}
					}
				}
			}
		}
		JOINT UpperLeg_L
		{
			OFFSET -2.19248 -6.46944 0.0
			CHANNELS 6 Xposition Yposition Zposition Zrotation Xrotation Yrotation 
			JOINT LowerLeg_L
			{
				OFFSET 39.0811 0.0 -1.23785e-05
				CHANNELS 6 Xposition Yposition Zposition Zrotation Xrotation Yrotation 
				JOINT Foot_L
				{
					OFFSET 40.9854 0.0 -1.26872e-05
					CHANNELS 6 Xposition Yposition Zposition Zrotation Xrotation Yrotation 
					JOINT Toes_L
					{
						OFFSET 11.7543 0.0 0.0
						CHANNELS 6 Xposition Yposition Zposition Zrotation Xrotation Yrotation 
						End Site
						{
							OFFSET 0.0 0.0 0.0
						}
					}
				}
			}
		}
		JOINT UpperLeg_R
		{
			OFFSET -2.19251 6.46944 0.0
			CHANNELS 6 Xposition Yposition Zposition Zrotation Xrotation Yrotation 
			JOINT LowerLeg_R
			{
				OFFSET -39.0811 -0.00228153 -0.0401928
				CHANNELS 6 Xposition Yposition Zposition Zrotation Xrotation Yrotation 
				JOINT Foot_R
				{
					OFFSET -40.9854 0.0 0.0
					CHANNELS 6 Xposition Yposition Zposition Zrotation Xrotation Yrotation 
					JOINT Toes_R
					{
						OFFSET -11.7543 0.0 0.0
						CHANNELS 6 Xposition Yposition Zposition Zrotation Xrotation Yrotation 
						End Site
						{
							OFFSET 0.0 0.0 0.0
						}
					}
				}
			}
		}
	}
}
MOTION
Frames:	4
Frame Time:	0.0333333
0.000000 0.000000 0.000000 0.000000 0.000000 -0.000000 -219.030000 92.389400 260.464000 163.764000 89.487000 -76.879400 15.735700 0.000005 -0.000001 118.303000 86.528200 -117.608000 8.984550 -0.406207 -0.000000 -1.672590 3.234140 1.437830 16.377300 -0.000001 -0.000001 -1.475050 1.453380 0.013273 6.456720 -0.000001 -0.000000 1.115510 0.701479 -0.327151 12.994200 -0.242716 4.980390 -92.497500 6.700030 -69.501500 5.348090 -0.000007 -0.000001 -61.906600 -15.076700 6.591480 24.328600 0.000019 0.000005 4.751480 20.855000 -13.143600 22.291600 -0.000001 0.000005 0.067931 5.072890 5.723530 12.994500 -0.242716 -4.980390 89.591200 1.279150 -72.280300 -5.348130 -0.000001 -0.000004 -67.522700 16.887100 -14.140800 -24.328900 0.000322 -0.000009 0.940132 0.897288 -46.377600 -22.291500 -0.000108 -0.000004 7.293350 5.354890 -1.524440 -2.192480 -6.469440 -0.000000 -175.955000 -0.386048 -25.764700 39.081100 -0.000007 -0.000012 0.246869 -0.151038 58.540500 40.985400 -0.000006 -0.000013 -11.942600 10.752100 -46.242700 11.754300 -0.000000 0.000003 0.002145 0.052717 -14.438400 -2.192510 6.469440 -0.000001 -179.042000 8.256420 176.354000 -39.081100 -0.002282 -0.040193 -0.010819 0.038068 20.376400 -40.985400 0.000008 0.000006 -6.185650 3.255090 -70.303400 -11.754300 -0.000006 -0.000006 -0.001992 0.196284 -8.609930
0.000000 0.000000 0.000000 0.000000 0.000000 -0.000000 -216.516000 93.137800 260.389000 154.087000 88.327200 -68.383000 15.735700 0.000005 -0.000001 126.613000 86.635400 -126.333000 8.984550 -0.406207 -0.000000 -2.376650 3.987270 0.644256 16.377300 -0.000001 -0.000001 -1.194850 1.694850 -0.431527 6.456720 -0.000001 -0.000000 1.438060 0.606180 -1.126590 12.994200 -0.242716 4.980390 -92.517200 6.583450 -69.021500 5.348090 -0.000007 -0.000001 -57.815900 -16.316500 7.323080 24.328600 0.000019 0.000005 5.179910 19.306000 -15.334000 22.291600 -0.000001 0.000005 2.679090 5.031470 6.635480 12.994500 -0.242716 -4.980390 89.867900 0.423863 -72.702100 -5.348130 -0.000001 -0.000004 -65.649300 17.145400 -17.358500 -24.328900 0.000322 -0.000009 0.649909 0.536117 -50.551200 -22.291500 -0.000108 -0.000004 6.919070 5.360560 -1.696590 -2.192480 -6.469440 -0.000000 -177.085000 0.368691 -27.945700 39.081100 -0.000007 -0.000012 0.171243 -0.147141 49.328700 40.985400 -0.000006 -0.000013 -11.226200 10.697800 -50.052000 11.754300 -0.000000 0.000003 0.001943 0.044582 -14.768300 -2.192510 6.469440 -0.000001 179.303000 11.089500 179.332000 -39.081100 -0.002282 -0.040193 -0.000876 0.015604 15.086800 -40.985400 0.000008 0.000006 -6.588170 6.280670 -66.676200 -11.754300 -0.000006 -0.000006 -0.000483 0.175432 -9.457430
0.000000 0.000000 0.000000 0.000000 0.000000 -0.000000 -213.978000 93.408700 260.342000 144.185000 87.731200 -59.604100 15.735700 0.000005 -0.000001 132.309000 86.778900 -132.120000 8.984550 -0.406207 -0.000000 -3.012920 4.316780 0.493254 16.377300 -0.000001 -0.000001 -1.048760 2.105600 -1.130770 6.456720 -0.000001 -0.000000 1.593850 0.834034 -2.445070 12.994200 -0.242716 4.980390 -92.517000 6.488890 -68.745400 5.348090 -0.000007 -0.000001 -54.172300 -16.975000 8.252120 24.328600 0.000019 0.000005 5.462000 18.153200 -17.062000 22.291600 -0.000001 0.000005 5.151780 4.989500 7.539130 12.994500 -0.242716 -4.980390 90.043700 -0.143472 -73.048700 -5.348130 -0.000001 -0.000004 -62.987100 17.450700 -21.316500 -24.328900 0.000322 -0.000009 0.448113 0.333207 -53.459600 -22.291500 -0.000108 -0.000004 6.270460 5.358320 -1.628490 -2.192480 -6.469440 -0.000000 -177.287000 0.689350 -28.415800 39.081100 -0.000007 -0.000012 0.106806 -0.143252 36.707200 40.985400 -0.000006 -0.000013 -10.123900 10.532900 -51.539900 11.754300 -0.000000 0.000003 0.001929 0.044101 -14.787900 -2.192510 6.469440 -0.000001 178.263000 13.637200 -177.921000 -39.081100 -0.002282 -0.040193 0.006599 -0.017353 10.642700 -40.985400 0.000008 0.000006 -7.273820 9.323200 -63.957100 -11.754300 -0.000006 -0.000006 0.000691 0.155101 -10.283000
0.000000 0.000000 0.000000 0.000000 0.000000 -0.000000 -211.249000 93.068400 260.317000 125.506000 87.265700 -41.620900 15.735700 0.000005 -0.000001 136.959000 86.789400 -136.644000 8.984550 -0.406207 -0.000000 -3.401560 4.659950 0.768365 16.377300 -0.000001 -0.000001 -1.056300 2.628810 -1.951590 6.456720 -0.000001 -0.000000 1.659700 1.211920 -3.568930 12.994200 -0.242716 4.980390 -92.380900 6.084980 -68.583200 5.348090 -0.000007 -0.000001 -51.261300 -17.919400 9.034680 24.328600 0.000019 0.000005 5.448630 17.211500 -17.866900 22.291600 -0.000001 0.000005 6.774850 4.964800 8.058240 12.994500 -0.242716 -4.980390 90.104200 -0.347667 -73.308600 -5.348130 -0.000001 -0.000004 -59.950000 17.528000 -25.411600 -24.328900 0.000322 -0.000009 0.243150 0.168897 -55.352700 -22.291500 -0.000108 -0.000004 5.905980 5.357510 -1.603680 -2.192480 -6.469440 -0.000000 -176.946000 0.020620 -26.549500 39.081100 -0.000007 -0.000012 0.054532 -0.142909 20.886200 40.985400 -0.000006 -0.000013 -8.676800 10.884000 -52.825200 11.754300 -0.000000 0.000003 0.002121 0.051654 -14.481500 -2.192510 6.469440 -0.000001 177.786000 14.079200 -175.507000 -39.081100 -0.002282 -0.040193 0.009353 -0.041781 8.186810 -40.985400 0.000008 0.000006 -8.040750 10.964100 -63.344300 -11.754300 -0.000006 -0.000006 0.001425 0.138646 -10.950700
